<svg width="49" height="47" viewBox="0 0 49 47" fill="none" xmlns="http://www.w3.org/2000/svg">
<path d="M8.72667 34.86L26.5912 4.09808L44.4558 34.86H8.72667Z" fill="black" stroke="black" stroke-width="1.2618"/>
<path d="M4.28453 32.3363L22.1491 1.57443L40.0136 32.3363H4.28453Z" fill="#FFDD02" stroke="black" stroke-width="1.2618"/>
<path d="M23.6043 11.0092V23.3243H20.2732V11.0092H23.6043ZM24.3362 26.6303C24.3362 26.9667 24.2689 27.2864 24.1343 27.5892C24.0165 27.8752 23.8483 28.1276 23.6296 28.3463C23.4109 28.5482 23.1501 28.708 22.8473 28.8258C22.5613 28.9604 22.2584 29.0277 21.9388 29.0277C21.6023 29.0277 21.291 28.9604 21.005 28.8258C20.719 28.708 20.4667 28.5482 20.248 28.3463C20.0292 28.1276 19.8526 27.8752 19.718 27.5892C19.6002 27.2864 19.5414 26.9667 19.5414 26.6303C19.5414 26.2938 19.6002 25.9825 19.718 25.6965C19.8526 25.3937 20.0292 25.1413 20.248 24.9394C20.4667 24.7207 20.719 24.5525 21.005 24.4347C21.291 24.3001 21.6023 24.2328 21.9388 24.2328C22.2584 24.2328 22.5613 24.3001 22.8473 24.4347C23.1501 24.5525 23.4109 24.7207 23.6296 24.9394C23.8483 25.1413 24.0165 25.3937 24.1343 25.6965C24.2689 25.9825 24.3362 26.2938 24.3362 26.6303Z" fill="black"/>
</svg>
