<svg width="1440" height="673" viewBox="0 0 1440 673" fill="none" xmlns="http://www.w3.org/2000/svg">
<g clip-path="url(#clip0_351_1118)">
<path d="M393.17 463.988C128.433 430.802 -121.387 602.628 -189.703 855.955V-234.455C-122.393 15.142 121.114 185.619 381.483 158.845H382.39H383.395H384.396H385.393H386.386H387.375H388.36H389.34H390.317H391.289H392.258H393.222H394.183H395.14H396.092H397.041H397.986H398.926H399.863H400.796H401.726H402.651H403.573H404.49H405.404H406.314H407.221H408.123H409.022H409.917H410.809H411.697H412.581H413.461H414.338H415.211H416.08H416.946H417.809H418.667H419.523H420.374H421.222H422.067H422.908H423.746H424.58H425.411H426.238H427.062H427.882H428.7H429.513H430.324H431.131H431.934H432.735H433.532H434.326H435.116H435.904H436.688H437.469H438.246H439.021H439.792H440.56H441.325H442.087H442.846H443.602H444.354H445.104H445.85H446.594H447.334H448.072H448.806H449.538H450.266H450.992H451.714H452.434H453.151H453.865H454.576H455.284H455.99H456.692H457.392H458.089H458.783H459.475H460.164H460.85H461.533H462.214H462.892H463.567H464.239H464.909H465.577H466.242H466.904H467.563H468.22H468.875H469.527H470.176H470.823H471.468H472.11H472.749H473.386H474.021H474.653H475.283H475.911H476.536H477.159H477.779H478.398H479.014H479.627H480.238H480.848H481.454H482.059H482.662H483.262H483.86H484.456H485.05H485.641H486.231H486.818H487.404H487.987H488.568H489.147H489.724H490.3H490.873H491.444H492.013H492.581H493.146H493.709H494.271H494.831H495.388H495.944H496.499H497.051H497.601H498.15H498.697H499.242H499.786H500.327H500.867H501.406H501.942H502.477H503.01H503.542H504.072H504.6H505.127H505.652H506.176H506.698H507.219H507.738H508.256H508.772H509.286H509.799H510.311H510.822H511.33H511.838H512.344H512.849H513.352H513.854H514.355H514.855H515.353H515.85H516.346H516.84H517.333H517.825H518.316H518.806H519.294H519.782H520.268H520.753H521.237H521.72H522.202H522.682H523.162H523.641H524.119H524.595H525.071H525.546H526.02H526.492H526.964H527.436H527.906H528.375H528.844H529.311H529.778H530.244H530.709H531.174H531.637H532.1H532.562H533.024H533.484H533.945H534.404H534.863H535.321H535.778H536.235H536.691H537.147H537.602H538.057H538.511H538.964H539.417H539.87H540.322H540.774H541.225H541.676H542.126H542.576H543.025H543.475H543.924H544.372H544.82H545.268H545.716H546.163H546.61H547.057H547.504H547.95H548.396H548.842H549.288H549.734H550.179H550.625H551.07H551.515H551.961H552.406H552.851H553.296H553.741H554.186H554.631H555.076H555.521H555.966H556.412H556.857H557.303H557.748H558.194H558.64H559.086H559.532H559.979H560.426H560.873H561.32H561.767H562.215H562.663H563.111H563.56H564.009H564.458H564.908H565.358H565.809H566.26H566.711H567.163H567.615H568.068H568.521H568.975H569.429H569.884H570.34H570.796H571.252H571.709H572.167H572.626H573.085H573.544H574.005H574.466H574.928H575.39H575.853H576.318H576.782H577.248H577.714H578.181H578.649H579.118H579.588H580.059H580.53H581.003H581.476H581.95H582.426H582.902H583.379H583.857H584.336H584.817H585.298H585.78H586.264H586.748H587.234H587.721H588.208H588.698H589.188H589.679H590.172H590.666H591.161H591.657H592.154H592.653H593.153H593.655H594.158H594.662H595.167H595.674H596.182H596.692H597.203H597.715H598.229H598.744H599.261H599.78H600.299H600.821H601.344H601.868H602.394H602.922H603.451H603.982H604.514H605.048H605.584H606.121H606.66H607.201H607.744H608.288H608.834H609.382H609.931H610.483H611.036H611.591H612.148H612.707H613.267H613.83H614.394H614.96H615.529H616.099H616.671H617.245H617.821H618.399H618.98H619.562H620.146H620.732H621.321H621.911H622.504H623.099H623.696H624.295H624.896H625.5H626.106H626.714H627.324H627.936H628.551H629.168H629.787H630.409H631.033H631.659H632.288H632.919H633.553H634.188H634.827H635.467H636.111H636.756H637.405H638.055H638.708H639.364H640.022H640.683H641.347H642.013H642.681H643.353H644.026H644.703H645.382H646.064H646.749H647.436H648.126H648.819H649.515H650.213H650.914H651.618H652.325H653.035H653.747H654.463H655.181H655.902H656.626H657.353H658.083H658.816H659.552H660.291H661.033H661.778H662.526H663.277H664.031H664.788H665.548H666.312H667.078H667.848H668.621H669.397H670.176H670.958H671.744H672.533H673.325H674.121H674.919H675.721H676.527H677.335H678.147H678.963H679.781H680.604H681.429H682.258H683.091H683.926H684.766H685.609H686.455H687.305H688.158H689.015H689.876H690.74H691.607H692.479H693.353H694.232H695.114H696H829.5H1090.39C1111.44 161.078 1124.01 161.078 1140.88 161.078H1140.89H1140.9C1157.77 161.078 1179.01 161.078 1217.52 163.307C1433.78 175.827 1626.46 8.27002 1683.73 -203.029V806.558C1627.21 598.78 1439.06 450.331 1226.3 440.511L1226.19 440.506L1226.09 440.513C1136.71 445.855 1087.74 448.06 1049.06 449.801C990.135 452.453 955.097 454.031 837.415 463.992H837.41H837.403H837.396H837.389H837.382H837.374H837.366H837.358H837.349H837.34H837.331H837.321H837.311H837.3H837.289H837.278H837.266H837.255H837.242H837.229H837.216H837.202H837.188H837.173H837.158H837.143H837.127H837.11H837.093H837.076H837.058H837.04H837.021H837.001H836.981H836.961H836.94H836.919H836.896H836.874H836.851H836.827H836.803H836.778H836.752H836.726H836.7H836.672H836.645H836.616H836.587H836.557H836.527H836.496H836.464H836.432H836.399H836.365H836.331H836.296H836.26H836.224H836.187H836.149H836.111H836.071H836.031H835.991H835.949H835.907H835.864H835.82H835.776H835.731H835.684H835.638H835.59H835.542H835.492H835.442H835.391H835.339H835.287H835.233H835.179H835.124H835.068H835.011H834.953H834.894H834.835H834.774H834.713H834.651H834.588H834.523H834.458H834.392H834.325H834.257H834.189H834.119H834.048H833.976H833.903H833.83H833.755H833.679H833.602H833.524H833.446H833.366H833.285H833.203H833.12H833.036H832.95H832.864H832.777H832.688H832.599H832.508H832.417H832.324H832.23H832.135H832.038H831.941H831.843H831.743H831.642H831.54H831.437H831.332H831.227H831.12H831.012H830.903H830.792H830.681H830.568H830.454H830.339H830.222H830.104H829.985H829.865H829.743H829.62H829.496H829.37H829.243H829.115H828.986H828.855H828.723H828.589H828.455H828.318H828.181H828.042H827.902H827.76H827.617H827.473H827.327H827.179H827.031H826.881H826.729H826.576H826.422H826.266H826.109H825.95H825.79H825.628H825.465H825.301H825.134H824.967H824.798H824.627H824.455H824.281H824.106H823.929H823.751H823.571H823.389H823.206H823.022H822.835H822.648H822.458H822.267H822.075H821.881H821.685H821.487H821.288H821.088H820.885H820.681H820.475H820.268H820.059H819.848H819.636H819.422H819.206H818.989H818.769H818.548H818.326H818.101H817.875H817.647H817.417H817.186H816.953H816.718H816.481H816.242H816.002H815.76H815.516H815.27H815.022H814.773H814.522H814.268H814.013H813.757H813.498H813.237H812.975H812.71H812.444H812.176H811.906H811.634H811.36H811.084H810.807H810.527H810.245H809.962H809.676H809.388H809.099H808.808H808.514H808.219H807.921H807.622H807.32H807.017H806.711H806.404H806.094H805.782H805.469H805.153H804.835H804.515H804.193H803.869H803.543H803.215H802.884H802.552H802.217H801.88H801.541H801.2H800.857H800.512H800.164H799.815H799.463H799.109H798.753H798.394H798.034H797.671H797.306H796.938H796.569H796.197H795.823H795.447H795.069H794.688H794.305H793.919H793.532H793.142H792.75H792.355H791.959H791.559H791.158H790.754H790.348H789.94H789.529H789.116H788.7H788.282H787.862H787.439H787.014H786.587H786.157H785.725H785.29H784.853H784.414H783.971H783.527H783.08H782.631H782.179H781.725H781.268H780.809H780.347H779.883H779.416H778.947H778.475H778.001H777.524H777.044H776.562H776.078H775.591H775.101H774.609H774.114H773.617H773.117H772.615H772.109H771.602H771.091H770.578H770.062H769.544H769.023H768.5H767.973H767.444H766.913H766.378H765.841H765.302H764.759H764.214H763.667H763.116H762.563H762.007H761.448H760.886H760.322H759.755H759.185H758.613H758.038H757.459H756.878H756.295H755.708H755.119H754.527H753.932H753.334H752.733H752.129H751.523H750.914H750.302H749.687H749.069H748.448H747.824H747.198H746.568H745.936H745.3H744.662H744.021H743.377H742.729H742.079H741.426H740.77H740.111H739.449H738.784H738.116H737.445H736.771H736.094H735.414H734.731H734.045H733.356H732.664H731.968H731.27H730.568H729.864H729.156H728.446H727.732H727.015H726.295H725.572H724.846H724.116H723.384H722.648H721.909H721.167H720.422H719.673H718.922H718.167H717.409H716.648H715.884H715.116H714.346H713.572H712.794H712.014H711.23H710.443H709.653H708.859H708.063H707.263H706.459H705.652H704.843H704.029H703.213H702.393H701.569H700.743H699.913H699.08H698.243H697.403H696.56H695.713H694.863H694.009H693.152H692.292H691.428H690.561H689.691H688.817H687.939H687.058H686.174H685.286H684.395H683.5C646.608 463.992 628.904 463.368 618.383 462.593C613.134 462.206 609.666 461.781 606.47 461.374L605.766 461.284C602.821 460.907 599.99 460.544 596.119 460.251C579.511 458.992 543.688 458.999 393.17 463.988ZM-193.703 890.506V1145.57L-202.214 1039.5C-206.363 987.793 -203.185 937.877 -193.703 890.506ZM-193.703 -269.006C-203.185 -316.377 -206.363 -366.293 -202.214 -418L-193.703 -524.068V-269.006ZM1687.73 -237.669V-469.271L1695.34 -374.441C1699.15 -326.999 1696.31 -281.182 1687.73 -237.669ZM1687.73 841.169C1696.31 884.682 1699.15 930.499 1695.34 977.941L1687.73 1072.77V841.169Z" fill="#88E5BE" stroke="black" stroke-width="4"/>
</g>
<defs>
<clipPath id="clip0_351_1118">
<rect width="1447" height="673" fill="white" transform="translate(-2)"/>
</clipPath>
</defs>
</svg>
