<svg width="585" height="390" viewBox="0 0 585 390" fill="none" xmlns="http://www.w3.org/2000/svg">
<mask id="path-1-inside-1_352_1124" fill="white">
<path fill-rule="evenodd" clip-rule="evenodd" d="M326.108 339.115C291.478 370.639 245.448 389.857 194.929 389.857C87.2726 389.857 0 302.585 0 194.929C0 87.2726 87.2726 0 194.929 0C245.017 0 290.693 18.8916 325.219 49.9382C351.247 33.7295 381.98 24.3662 414.9 24.3662C508.725 24.3662 584.785 100.427 584.785 194.252C584.785 288.077 508.725 364.138 414.9 364.138C382.354 364.138 351.945 354.986 326.108 339.115Z"/>
</mask>
<path fill-rule="evenodd" clip-rule="evenodd" d="M326.108 339.115C291.478 370.639 245.448 389.857 194.929 389.857C87.2726 389.857 0 302.585 0 194.929C0 87.2726 87.2726 0 194.929 0C245.017 0 290.693 18.8916 325.219 49.9382C351.247 33.7295 381.98 24.3662 414.9 24.3662C508.725 24.3662 584.785 100.427 584.785 194.252C584.785 288.077 508.725 364.138 414.9 364.138C382.354 364.138 351.945 354.986 326.108 339.115Z" fill="white"/>
<path d="M326.108 339.115L328.201 335.707L325.639 334.133L323.415 336.157L326.108 339.115ZM325.219 49.9382L322.545 52.9125L324.781 54.9234L327.334 53.3336L325.219 49.9382ZM323.415 336.157C289.493 367.037 244.413 385.857 194.929 385.857V393.857C246.482 393.857 293.463 374.242 328.801 342.073L323.415 336.157ZM194.929 385.857C89.4817 385.857 4 300.376 4 194.929H-4C-4 304.794 85.0634 393.857 194.929 393.857V385.857ZM4 194.929C4 89.4817 89.4817 4 194.929 4V-4C85.0634 -4 -4 85.0634 -4 194.929H4ZM194.929 4C243.991 4 288.724 22.5006 322.545 52.9125L327.894 46.9638C292.661 15.2826 246.042 -4 194.929 -4V4ZM327.334 53.3336C352.746 37.5086 382.749 28.3662 414.9 28.3662V20.3662C381.211 20.3662 349.749 29.9504 323.105 46.5427L327.334 53.3336ZM414.9 28.3662C506.516 28.3662 580.785 102.636 580.785 194.252H588.785C588.785 98.2175 510.934 20.3662 414.9 20.3662V28.3662ZM580.785 194.252C580.785 285.868 506.516 360.138 414.9 360.138V368.138C510.934 368.138 588.785 290.286 588.785 194.252H580.785ZM414.9 360.138C383.114 360.138 353.427 351.202 328.201 335.707L324.014 342.524C350.464 358.77 381.594 368.138 414.9 368.138V360.138Z" fill="black" mask="url(#path-1-inside-1_352_1124)"/>
</svg>
