<svg width="553" height="330" viewBox="0 0 553 330" fill="none" xmlns="http://www.w3.org/2000/svg">
<mask id="path-1-inside-1_352_1120" fill="white">
<path fill-rule="evenodd" clip-rule="evenodd" d="M413.524 271.303C383.27 307.115 338.031 329.857 287.479 329.857C252.048 329.857 219.226 318.685 192.345 299.67C177.163 305.124 160.799 308.096 143.74 308.096C64.3546 308.096 0 243.741 0 164.356C0 84.9706 64.3546 20.6161 143.74 20.6161C161.202 20.6161 177.937 23.73 193.42 29.4327C220.099 10.8775 252.519 0 287.479 0C337.59 0 382.48 22.3477 412.729 57.6204C421.911 55.149 431.565 53.8309 441.528 53.8309C502.569 53.8309 552.053 103.315 552.053 164.356C552.053 225.397 502.569 274.881 441.528 274.881C431.852 274.881 422.467 273.638 413.524 271.303Z"/>
</mask>
<path fill-rule="evenodd" clip-rule="evenodd" d="M413.524 271.303C383.27 307.115 338.031 329.857 287.479 329.857C252.048 329.857 219.226 318.685 192.345 299.67C177.163 305.124 160.799 308.096 143.74 308.096C64.3546 308.096 0 243.741 0 164.356C0 84.9706 64.3546 20.6161 143.74 20.6161C161.202 20.6161 177.937 23.73 193.42 29.4327C220.099 10.8775 252.519 0 287.479 0C337.59 0 382.48 22.3477 412.729 57.6204C421.911 55.149 431.565 53.8309 441.528 53.8309C502.569 53.8309 552.053 103.315 552.053 164.356C552.053 225.397 502.569 274.881 441.528 274.881C431.852 274.881 422.467 273.638 413.524 271.303Z" fill="white"/>
<path d="M413.524 271.303L414.535 267.432L412.095 266.795L410.468 268.721L413.524 271.303ZM192.345 299.67L194.655 296.405L192.953 295.202L190.992 295.906L192.345 299.67ZM193.42 29.4327L192.038 33.1862L193.993 33.9065L195.704 32.7166L193.42 29.4327ZM412.729 57.6204L409.692 60.2243L411.334 62.1382L413.768 61.4829L412.729 57.6204ZM287.479 333.857C339.258 333.857 385.598 310.557 416.58 273.884L410.468 268.721C380.942 303.672 336.804 325.857 287.479 325.857V333.857ZM190.035 302.936C217.57 322.413 251.194 333.857 287.479 333.857V325.857C252.902 325.857 220.883 314.957 194.655 296.405L190.035 302.936ZM143.74 312.096C161.266 312.096 178.088 309.042 193.697 303.435L190.992 295.906C176.239 301.206 160.331 304.096 143.74 304.096V312.096ZM-4 164.356C-4 245.951 62.1454 312.096 143.74 312.096V304.096C66.5637 304.096 4 241.532 4 164.356H-4ZM143.74 16.6161C62.1454 16.6161 -4 82.7615 -4 164.356H4C4 87.1798 66.5637 24.6161 143.74 24.6161V16.6161ZM194.803 25.6793C178.884 19.8158 161.681 16.6161 143.74 16.6161V24.6161C160.724 24.6161 176.991 27.6441 192.038 33.1862L194.803 25.6793ZM287.479 -4C251.677 -4 218.464 7.14248 191.136 26.1489L195.704 32.7166C221.735 14.6125 253.362 4 287.479 4V-4ZM415.765 55.0165C384.789 18.8955 338.806 -4 287.479 -4V4C336.373 4 380.171 25.7999 409.692 60.2243L415.765 55.0165ZM413.768 61.4829C422.614 59.102 431.919 57.8309 441.528 57.8309V49.8309C431.211 49.8309 421.207 51.1961 411.689 53.7578L413.768 61.4829ZM441.528 57.8309C500.36 57.8309 548.053 105.524 548.053 164.356H556.053C556.053 101.106 504.778 49.8309 441.528 49.8309V57.8309ZM548.053 164.356C548.053 223.188 500.36 270.881 441.528 270.881V278.881C504.778 278.881 556.053 227.607 556.053 164.356H548.053ZM441.528 270.881C432.196 270.881 423.151 269.682 414.535 267.432L412.513 275.173C421.784 277.594 431.508 278.881 441.528 278.881V270.881Z" fill="black" mask="url(#path-1-inside-1_352_1120)"/>
</svg>
