<svg width="225" height="57" viewBox="0 0 225 57" fill="none" xmlns="http://www.w3.org/2000/svg">
<rect width="198" height="40" transform="translate(26 6)" fill="#1E1E1E"/>
<g filter="url(#filter0_d_28_3091)">
<path d="M67.416 38H62.88V12.8H67.416V23.024H68.064C68.52 21.944 69.192 21.116 70.08 20.54C70.968 19.94 72.06 19.64 73.356 19.64C74.244 19.64 75.06 19.784 75.804 20.072C76.548 20.36 77.196 20.792 77.748 21.368C78.3 21.944 78.732 22.688 79.044 23.6C79.356 24.488 79.512 25.544 79.512 26.768V38H74.976V27.848C74.976 26.576 74.664 25.58 74.04 24.86C73.44 24.116 72.564 23.744 71.412 23.744C70.068 23.744 69.06 24.2 68.388 25.112C67.74 26 67.416 27.2 67.416 28.712V38ZM94.607 35.408C94.127 36.536 93.455 37.34 92.591 37.82C91.727 38.276 90.719 38.504 89.567 38.504C88.487 38.504 87.467 38.3 86.507 37.892C85.571 37.484 84.743 36.884 84.023 36.092C83.303 35.3 82.727 34.34 82.295 33.212C81.887 32.084 81.683 30.8 81.683 29.36V28.784C81.683 27.368 81.887 26.096 82.295 24.968C82.703 23.84 83.255 22.88 83.951 22.088C84.647 21.296 85.451 20.696 86.363 20.288C87.299 19.856 88.295 19.64 89.351 19.64C90.623 19.64 91.643 19.856 92.411 20.288C93.203 20.72 93.827 21.392 94.283 22.304H94.931V20.144H99.467V32.6C99.467 33.32 99.791 33.68 100.439 33.68H101.123V38H98.027C97.211 38 96.539 37.76 96.011 37.28C95.507 36.8 95.255 36.176 95.255 35.408H94.607ZM90.575 34.184C91.895 34.184 92.951 33.752 93.743 32.888C94.535 32 94.931 30.8 94.931 29.288V28.856C94.931 27.344 94.535 26.156 93.743 25.292C92.951 24.404 91.895 23.96 90.575 23.96C89.255 23.96 88.199 24.404 87.407 25.292C86.615 26.156 86.219 27.344 86.219 28.856V29.288C86.219 30.8 86.615 32 87.407 32.888C88.199 33.752 89.255 34.184 90.575 34.184ZM106.894 45.2H102.358V20.144H106.894V22.736H107.542C108.022 21.752 108.718 20.996 109.63 20.468C110.542 19.916 111.706 19.64 113.122 19.64C114.178 19.64 115.174 19.844 116.11 20.252C117.07 20.66 117.898 21.26 118.594 22.052C119.314 22.82 119.878 23.768 120.286 24.896C120.718 26.024 120.934 27.308 120.934 28.748V29.396C120.934 30.86 120.73 32.156 120.322 33.284C119.914 34.412 119.362 35.372 118.666 36.164C117.97 36.932 117.142 37.52 116.182 37.928C115.246 38.312 114.226 38.504 113.122 38.504C112.306 38.504 111.598 38.42 110.998 38.252C110.398 38.084 109.87 37.856 109.414 37.568C108.982 37.28 108.61 36.956 108.298 36.596C108.01 36.212 107.758 35.816 107.542 35.408H106.894V45.2ZM111.646 34.184C113.062 34.184 114.202 33.752 115.066 32.888C115.954 32 116.398 30.8 116.398 29.288V28.856C116.398 27.344 115.954 26.156 115.066 25.292C114.202 24.404 113.062 23.96 111.646 23.96C110.23 23.96 109.078 24.416 108.19 25.328C107.326 26.216 106.894 27.392 106.894 28.856V29.288C106.894 30.752 107.326 31.94 108.19 32.852C109.078 33.74 110.23 34.184 111.646 34.184ZM127.137 45.2H122.601V20.144H127.137V22.736H127.785C128.265 21.752 128.961 20.996 129.873 20.468C130.785 19.916 131.949 19.64 133.365 19.64C134.421 19.64 135.417 19.844 136.353 20.252C137.313 20.66 138.141 21.26 138.837 22.052C139.557 22.82 140.121 23.768 140.529 24.896C140.961 26.024 141.177 27.308 141.177 28.748V29.396C141.177 30.86 140.973 32.156 140.565 33.284C140.157 34.412 139.605 35.372 138.909 36.164C138.213 36.932 137.385 37.52 136.425 37.928C135.489 38.312 134.469 38.504 133.365 38.504C132.549 38.504 131.841 38.42 131.241 38.252C130.641 38.084 130.113 37.856 129.657 37.568C129.225 37.28 128.853 36.956 128.541 36.596C128.253 36.212 128.001 35.816 127.785 35.408H127.137V45.2ZM131.889 34.184C133.305 34.184 134.445 33.752 135.309 32.888C136.197 32 136.641 30.8 136.641 29.288V28.856C136.641 27.344 136.197 26.156 135.309 25.292C134.445 24.404 133.305 23.96 131.889 23.96C130.473 23.96 129.321 24.416 128.433 25.328C127.569 26.216 127.137 27.392 127.137 28.856V29.288C127.137 30.752 127.569 31.94 128.433 32.852C129.321 33.74 130.473 34.184 131.889 34.184ZM155.876 20.144H160.412V42.392C160.412 43.208 160.148 43.88 159.62 44.408C159.116 44.936 158.456 45.2 157.64 45.2H147.02V40.88H154.904C155.552 40.88 155.876 40.52 155.876 39.8V35.408H155.228C154.436 37.472 152.732 38.504 150.116 38.504C149.228 38.504 148.4 38.36 147.632 38.072C146.864 37.784 146.192 37.34 145.616 36.74C145.04 36.14 144.584 35.396 144.248 34.508C143.936 33.596 143.78 32.528 143.78 31.304V20.144H148.316V30.368C148.316 31.64 148.616 32.636 149.216 33.356C149.816 34.052 150.716 34.4 151.916 34.4C153.284 34.4 154.28 33.968 154.904 33.104C155.552 32.216 155.876 31.016 155.876 29.504V20.144ZM167.803 38H163.267V12.8H167.803V22.736H168.451C168.931 21.752 169.627 20.996 170.539 20.468C171.451 19.916 172.615 19.64 174.031 19.64C175.087 19.64 176.083 19.844 177.019 20.252C177.979 20.66 178.807 21.26 179.503 22.052C180.223 22.82 180.787 23.768 181.195 24.896C181.627 26.024 181.843 27.308 181.843 28.748V29.396C181.843 30.86 181.639 32.156 181.231 33.284C180.823 34.412 180.271 35.372 179.575 36.164C178.879 36.932 178.051 37.52 177.091 37.928C176.155 38.312 175.135 38.504 174.031 38.504C173.215 38.504 172.507 38.42 171.907 38.252C171.307 38.084 170.779 37.856 170.323 37.568C169.891 37.28 169.519 36.956 169.207 36.596C168.919 36.212 168.667 35.816 168.451 35.408H167.803V38ZM172.555 34.184C173.971 34.184 175.111 33.752 175.975 32.888C176.863 32 177.307 30.8 177.307 29.288V28.856C177.307 27.344 176.863 26.156 175.975 25.292C175.111 24.404 173.971 23.96 172.555 23.96C171.139 23.96 169.987 24.416 169.099 25.328C168.235 26.216 167.803 27.392 167.803 28.856V29.288C167.803 30.752 168.235 31.94 169.099 32.852C169.987 33.74 171.139 34.184 172.555 34.184ZM201.762 29.288C201.762 30.776 201.51 32.096 201.006 33.248C200.502 34.376 199.818 35.336 198.954 36.128C198.09 36.896 197.094 37.484 195.966 37.892C194.862 38.3 193.698 38.504 192.474 38.504C191.25 38.504 190.074 38.3 188.946 37.892C187.842 37.484 186.858 36.896 185.994 36.128C185.13 35.336 184.446 34.376 183.942 33.248C183.438 32.096 183.186 30.776 183.186 29.288V28.856C183.186 27.392 183.438 26.096 183.942 24.968C184.446 23.816 185.13 22.844 185.994 22.052C186.858 21.26 187.842 20.66 188.946 20.252C190.074 19.844 191.25 19.64 192.474 19.64C193.698 19.64 194.862 19.844 195.966 20.252C197.094 20.66 198.09 21.26 198.954 22.052C199.818 22.844 200.502 23.816 201.006 24.968C201.51 26.096 201.762 27.392 201.762 28.856V29.288ZM192.474 34.184C193.122 34.184 193.734 34.076 194.31 33.86C194.886 33.644 195.39 33.332 195.822 32.924C196.254 32.516 196.59 32.024 196.83 31.448C197.094 30.848 197.226 30.176 197.226 29.432V28.712C197.226 27.968 197.094 27.308 196.83 26.732C196.59 26.132 196.254 25.628 195.822 25.22C195.39 24.812 194.886 24.5 194.31 24.284C193.734 24.068 193.122 23.96 192.474 23.96C191.826 23.96 191.214 24.068 190.638 24.284C190.062 24.5 189.558 24.812 189.126 25.22C188.694 25.628 188.346 26.132 188.082 26.732C187.842 27.308 187.722 27.968 187.722 28.712V29.432C187.722 30.176 187.842 30.848 188.082 31.448C188.346 32.024 188.694 32.516 189.126 32.924C189.558 33.332 190.062 33.644 190.638 33.86C191.214 34.076 191.826 34.184 192.474 34.184ZM204.005 20.144H209.297V12.8H213.833V20.144H220.277V24.464H213.833V32.6C213.833 33.32 214.157 33.68 214.805 33.68H219.629V38H212.069C211.253 38 210.581 37.736 210.053 37.208C209.549 36.68 209.297 36.008 209.297 35.192V24.464H204.005V20.144Z" fill="white"/>
</g>
<circle cx="30.3333" cy="30.3333" r="26" fill="black"/>
<circle cx="26" cy="26" r="24.7867" fill="#FFDD02" stroke="black" stroke-width="2.42667"/>
<path d="M42.64 26H9.27332C9.27332 33.1964 14.2877 39.4204 21.3193 40.9517L22.5306 41.2155C24.8734 41.7258 27.299 41.7218 29.6402 41.2039L30.6026 40.991C37.6344 39.4356 42.64 33.2017 42.64 26Z" fill="white" stroke="black" stroke-width="2.42667"/>
<circle cx="17.5067" cy="16.9867" r="2.77333" fill="black"/>
<circle cx="34.4933" cy="16.9867" r="2.77333" fill="black"/>
<defs>
<filter id="filter0_d_28_3091" x="62.88" y="12.8" width="161.397" height="36.4" filterUnits="userSpaceOnUse" color-interpolation-filters="sRGB">
<feFlood flood-opacity="0" result="BackgroundImageFix"/>
<feColorMatrix in="SourceAlpha" type="matrix" values="0 0 0 0 0 0 0 0 0 0 0 0 0 0 0 0 0 0 127 0" result="hardAlpha"/>
<feOffset dx="4" dy="4"/>
<feComposite in2="hardAlpha" operator="out"/>
<feColorMatrix type="matrix" values="0 0 0 0 0 0 0 0 0 0 0 0 0 0 0 0 0 0 1 0"/>
<feBlend mode="normal" in2="BackgroundImageFix" result="effect1_dropShadow_28_3091"/>
<feBlend mode="normal" in="SourceGraphic" in2="effect1_dropShadow_28_3091" result="shape"/>
</filter>
</defs>
</svg>
