<svg width="1440" height="670" viewBox="0 0 1440 670" fill="none" xmlns="http://www.w3.org/2000/svg">
<g clip-path="url(#clip0_348_778)">
<mask id="path-1-inside-1_348_778" fill="white">
<path fill-rule="evenodd" clip-rule="evenodd" d="M739.696 609.074L805.926 635.143C974.649 701.556 1154.36 617.122 1222.21 465.509C1439.35 475.531 1630.75 630.541 1681.73 845.523V1145.7L1693.34 1001.1C1697.69 946.791 1693.37 894.594 1681.73 845.523V325.91V323.59V-196.023C1693.37 -245.095 1697.69 -297.291 1693.34 -351.601L1681.73 -496.204V-196.023C1630.08 21.7844 1434.29 178.033 1213.63 184.311C1140.15 43.9308 967.971 -31.4274 805.926 32.3567L762.954 49.2711L752.329 45.0888C604.388 -13.1436 447.343 53.6116 377.381 179.845C112.597 207.125 -134.727 29.6118 -195.703 -227.491V-551L-208.207 -395.16C-212.904 -336.629 -208.246 -280.377 -195.703 -227.491V332.5V335V894.991C-208.246 947.877 -212.904 1004.13 -208.207 1062.66L-195.703 1218.5V894.991C-133.83 634.106 119.914 455.169 389.078 488.992C461.53 599.134 603.305 656.12 739.696 609.074Z"/>
</mask>
<path fill-rule="evenodd" clip-rule="evenodd" d="M739.696 609.074L805.926 635.143C974.649 701.556 1154.36 617.122 1222.21 465.509C1439.35 475.531 1630.75 630.541 1681.73 845.523V1145.7L1693.34 1001.1C1697.69 946.791 1693.37 894.594 1681.73 845.523V325.91V323.59V-196.023C1693.37 -245.095 1697.69 -297.291 1693.34 -351.601L1681.73 -496.204V-196.023C1630.08 21.7844 1434.29 178.033 1213.63 184.311C1140.15 43.9308 967.971 -31.4274 805.926 32.3567L762.954 49.2711L752.329 45.0888C604.388 -13.1436 447.343 53.6116 377.381 179.845C112.597 207.125 -134.727 29.6118 -195.703 -227.491V-551L-208.207 -395.16C-212.904 -336.629 -208.246 -280.377 -195.703 -227.491V332.5V335V894.991C-208.246 947.877 -212.904 1004.13 -208.207 1062.66L-195.703 1218.5V894.991C-133.83 634.106 119.914 455.169 389.078 488.992C461.53 599.134 603.305 656.12 739.696 609.074Z" fill="#88E5BE"/>
<path d="M739.696 609.074L741.162 605.352L739.788 604.811L738.392 605.293L739.696 609.074ZM805.926 635.143L807.391 631.421L807.391 631.421L805.926 635.143ZM1222.21 465.509L1222.39 461.513L1219.67 461.388L1218.56 463.875L1222.21 465.509ZM1681.73 1145.7H1677.73L1685.72 1146.02L1681.73 1145.7ZM1693.34 1001.1L1689.35 1000.78L1689.35 1000.78L1693.34 1001.1ZM1693.34 -351.601L1689.35 -351.281L1689.35 -351.281L1693.34 -351.601ZM1681.73 -496.204L1685.72 -496.524L1677.73 -496.204H1681.73ZM1213.63 184.311L1210.09 186.166L1211.25 188.38L1213.75 188.309L1213.63 184.311ZM805.926 32.3567L807.391 36.0787L807.391 36.0787L805.926 32.3567ZM762.954 49.2711L761.489 52.9932L762.954 53.5698L764.419 52.9932L762.954 49.2711ZM752.329 45.0888L753.794 41.3668L753.794 41.3668L752.329 45.0888ZM377.381 179.845L377.791 183.824L379.868 183.61L380.88 181.784L377.381 179.845ZM-195.703 -551H-191.703L-199.69 -551.32L-195.703 -551ZM-208.207 -395.16L-204.22 -394.84L-208.207 -395.16ZM-208.207 1062.66L-204.22 1062.34L-204.22 1062.34L-208.207 1062.66ZM-195.703 1218.5L-199.69 1218.82L-191.703 1218.5H-195.703ZM389.078 488.992L392.42 486.794L391.406 485.253L389.577 485.024L389.078 488.992ZM738.231 612.796L804.461 638.865L807.391 631.421L741.162 605.352L738.231 612.796ZM804.461 638.865C975.278 706.102 1157.18 620.603 1225.86 467.143L1218.56 463.875C1151.53 613.642 974.019 697.009 807.391 631.421L804.461 638.865ZM1685.63 844.6C1634.22 627.855 1441.29 471.616 1222.39 461.513L1222.02 469.505C1437.41 479.446 1627.27 633.227 1677.84 846.446L1685.63 844.6ZM1685.73 1145.7V845.523H1677.73V1145.7H1685.73ZM1689.35 1000.78L1677.75 1145.38L1685.72 1146.02L1697.32 1001.42L1689.35 1000.78ZM1677.84 846.446C1689.38 895.111 1693.67 946.888 1689.35 1000.78L1697.32 1001.42C1701.72 946.694 1697.36 894.078 1685.63 844.6L1677.84 846.446ZM1677.73 325.91V845.523H1685.73V325.91H1677.73ZM1677.73 323.59V325.91H1685.73V323.59H1677.73ZM1677.73 -196.023V323.59H1685.73V-196.023H1677.73ZM1689.35 -351.281C1693.67 -297.388 1689.38 -245.611 1677.84 -196.946L1685.63 -195.1C1697.36 -244.578 1701.72 -297.194 1697.32 -351.921L1689.35 -351.281ZM1677.75 -495.884L1689.35 -351.281L1697.32 -351.921L1685.72 -496.524L1677.75 -495.884ZM1685.73 -196.023V-496.204H1677.73V-196.023H1685.73ZM1213.75 188.309C1436.19 181.98 1633.55 24.4922 1685.63 -195.1L1677.84 -196.946C1626.61 19.0766 1432.39 174.085 1213.52 180.312L1213.75 188.309ZM1217.18 182.455C1142.8 40.3731 968.518 -35.9416 804.461 28.6346L807.391 36.0787C967.424 -26.9133 1137.5 47.4886 1210.09 186.166L1217.18 182.455ZM804.461 28.6346L761.489 45.5491L764.419 52.9932L807.391 36.0787L804.461 28.6346ZM750.864 48.8108L761.489 52.9932L764.419 45.5491L753.794 41.3668L750.864 48.8108ZM380.88 181.784C449.928 57.1981 604.903 -8.64216 750.864 48.8108L753.794 41.3668C603.873 -17.6451 444.757 50.025 373.883 177.906L380.88 181.784ZM376.971 175.866C114.197 202.939 -131.296 26.7462 -191.811 -228.415L-199.595 -226.568C-138.158 32.4774 110.997 211.311 377.791 183.824L376.971 175.866ZM-191.703 -227.491V-551H-199.703V-227.491H-191.703ZM-199.69 -551.32L-212.195 -395.48L-204.22 -394.84L-191.716 -550.68L-199.69 -551.32ZM-212.195 -395.48C-216.924 -336.532 -212.234 -279.86 -199.595 -226.568L-191.811 -228.415C-204.257 -280.893 -208.883 -336.727 -204.22 -394.84L-212.195 -395.48ZM-199.703 -227.491V332.5H-191.703V-227.491H-199.703ZM-199.703 332.5V335H-191.703V332.5H-199.703ZM-199.703 335V894.991H-191.703V335H-199.703ZM-199.595 894.068C-212.234 947.36 -216.924 1004.03 -212.195 1062.98L-204.22 1062.34C-208.883 1004.23 -204.257 948.393 -191.811 895.915L-199.595 894.068ZM-212.195 1062.98L-199.69 1218.82L-191.716 1218.18L-204.22 1062.34L-212.195 1062.98ZM-191.703 1218.5V894.991H-199.703V1218.5H-191.703ZM-191.811 895.915C-130.405 636.998 121.461 459.395 388.579 492.961L389.577 485.024C118.368 450.944 -137.255 631.214 -199.595 894.068L-191.811 895.915ZM738.392 605.293C603.835 651.706 463.93 595.504 392.42 486.794L385.736 491.191C459.13 602.764 602.774 660.535 741.001 612.856L738.392 605.293Z" fill="black" mask="url(#path-1-inside-1_348_778)"/>
</g>
<defs>
<clipPath id="clip0_348_778">
<rect width="1440" height="670" fill="white"/>
</clipPath>
</defs>
</svg>
