<svg width="132" height="132" viewBox="0 0 132 132" fill="none" xmlns="http://www.w3.org/2000/svg">
<path d="M105.244 82.0996L105.253 29.0312C105.169 24.5872 101.653 21.0144 97.1962 21.0144H41.8134C29.8674 21.2124 20.2402 30.9716 20.2402 42.9792C20.2402 47.036 21.3226 50.49 22.9902 53.5172C24.3806 56.0428 26.5894 58.4232 28.7806 60.214C29.379 60.7024 29.0974 60.522 30.9762 61.6748C33.5678 63.2676 36.5422 64.0552 36.5422 64.0552L36.5202 95.7924C36.5818 97.2928 36.749 98.736 37.123 100.078C38.3594 104.544 41.4526 107.985 45.6766 109.652C47.441 110.348 49.4386 110.818 51.555 110.832L95.7926 110.994C104.615 110.994 111.769 103.831 111.769 94.996C111.769 89.7072 109.204 85.0168 105.253 82.104L105.244 82.0996Z" fill="#FFEEDA"/>
<path d="M106.313 95.3348C106.132 101.002 101.486 105.538 95.7835 105.538L65.3311 105.42C67.7643 102.612 69.2295 98.9604 69.2295 94.9872C69.2295 88.7348 65.5027 84.436 65.5027 84.436H95.7835C101.6 84.436 106.317 89.1572 106.317 94.9872V95.3348H106.313Z" fill="#EBC28E"/>
<path d="M31.6494 55.6996C28.1558 52.3908 25.6786 48.0964 25.6786 42.9792L25.6874 42.438C25.969 33.7436 33.1278 26.7476 41.809 26.4704H97.1962C98.6482 26.5188 99.8142 27.5616 99.8142 29.0312V75.8824C101.095 76.1156 101.706 76.2696 102.934 76.7184C103.893 77.066 105.257 77.8404 105.257 77.8404V29.0312C105.173 24.5872 101.658 21.0144 97.2006 21.0144H41.8134C29.8674 21.2124 20.2402 30.9716 20.2402 42.9792C20.2402 49.9532 23.4126 55.8932 28.6222 60.082C28.9698 60.3592 29.313 60.7244 30.2458 60.72C31.8782 60.7156 33.0222 59.4352 32.9562 58.014C32.899 56.8436 32.4062 56.4124 31.6494 55.6952V55.6996Z" fill="#190602"/>
<path d="M95.7837 78.9932H52.3381C49.4209 79.0196 47.0625 81.3912 47.0625 84.3128V90.5432C47.1461 93.4296 49.6057 95.9024 52.5097 95.9024H55.7393V90.5432H52.5097V84.4448H54.2697C59.7521 84.4448 63.7869 89.5488 63.7869 94.996C63.7869 99.8184 59.3957 106.005 52.0169 105.508C45.4653 105.068 41.9497 99.2508 41.9541 94.996V42.042C41.9541 39.6484 40.0137 37.708 37.6201 37.708H33.2905V43.1112H36.5113V94.9872C36.3485 105.538 44.0265 110.854 52.0213 110.854L95.7793 110.981C104.601 110.981 111.756 103.818 111.756 94.9828C111.756 86.1476 104.606 78.9844 95.7793 78.9844L95.7837 78.9932ZM106.313 95.3392C106.133 101.006 101.486 105.543 95.7837 105.543L65.3313 105.424C67.7645 102.617 69.2297 98.9648 69.2297 94.9916C69.2297 88.7392 65.5029 84.4404 65.5029 84.4404H95.7837C101.601 84.4404 106.317 89.1616 106.317 94.9916V95.3392H106.313Z" fill="#190602"/>
<path d="M84.0929 38.6848H51.3481V44.088H84.0973C85.5889 44.088 86.7989 42.878 86.7989 41.3864C86.7989 39.8948 85.5889 38.6848 84.0973 38.6848H84.0929Z" fill="#190602"/>
<path d="M84.0929 64.1828H51.3481V69.586H84.0973C85.5889 69.586 86.7989 68.376 86.7989 66.8844C86.7989 65.3928 85.5889 64.1828 84.0973 64.1828H84.0929Z" fill="#190602"/>
<path d="M89.8569 51.436H51.3481V56.8392H89.8569C91.3485 56.8392 92.5585 55.6292 92.5585 54.1376C92.5585 52.646 91.3485 51.436 89.8569 51.436Z" fill="#190602"/>
</svg>
